<svg width="122.271875px" height="121.39999999999999px" xmlns="http://www.w3.org/2000/svg" viewBox="188.8640625 14.300000000000004 122.271875 121.39999999999999" style="background: rgba(0, 0, 0, 0);" preserveAspectRatio="xMidYMid"><defs><filter id="editing-extrusion" x="-100%" y="-100%" width="300%" height="300%"><feFlood result="color1" flood-color="#444"></feFlood><feConvolveMatrix order="8,8" divisor="1" kernelMatrix="1 0 0 0 0 0 0 0 0 1 0 0 0 0 0 0 0 0 1 0 0 0 0 0 0 0 0 1 0 0 0 0 0 0 0 0 1 0 0 0 0 0 0 0 0 1 0 0 0 0 0 0 0 0 1 0 0 0 0 0 0 0 0 1" in="SourceAlpha" result="extrude"></feConvolveMatrix><feComposite in="color1" in2="extrude" result="comp-extrude" operator="in"></feComposite><feOffset dx="4" dy="4" in="comp-extrude" result="offset-extrude"></feOffset><feMerge><feMergeNode in="offset-extrude"></feMergeNode><feMergeNode in="SourceGraphic"></feMergeNode></feMerge></filter></defs><g filter="url(#editing-extrusion)"><g transform="translate(213.33000779151917, 97.07999992370605)"><path d="M28.42-9.86L28.42-9.86L28.42-9.86Q29.63-8.32 29.63-5.82L29.63-5.82L29.63-5.82Q29.63-2.37 27.07-0.54L27.07-0.54L27.07-0.54Q24.51 1.28 20.48 1.28L20.48 1.28L20.48 1.28Q18.18 1.28 14.66 0.77L14.66 0.77L14.66 0.77Q7.74-0.32 5.63-0.32L5.63-0.32L5.63-0.32Q3.52-0.32 2.69-0.22L2.69-0.22L2.69-0.22Q1.86-0.13 0.51 0L0.51 0L8.38-42.24L35.97-42.24L35.97-42.24Q35.97-38.34 34.08-36.29L34.08-36.29L34.08-36.29Q32.19-34.24 28.48-34.24L28.48-34.24L28.48-34.24Q24.77-34.24 20.99-35.97L20.99-35.97L19.01-24.77L30.40-24.77L30.40-24.77Q30.40-21.38 28.74-19.49L28.74-19.49L28.74-19.49Q27.07-17.60 24.29-17.60L24.29-17.60L24.29-17.60Q21.50-17.60 19.78-18.24L19.78-18.24L19.78-18.24Q18.05-18.88 17.86-19.07L17.86-19.07L15.55-6.98L15.55-6.98Q17.09-6.78 19.97-6.78L19.97-6.78L19.97-6.78Q24.90-6.78 28.42-9.86ZM34.88-0.32L34.88-0.32L42.94-42.24L42.94-42.24Q50.50-42.88 55.36-42.88L55.36-42.88L55.36-42.88Q60.22-42.88 63.36-42.46L63.36-42.46L63.36-42.46Q66.50-42.05 68.61-40.96L68.61-40.96L68.61-40.96Q72.83-38.91 72.83-33.28L72.83-33.28L72.83-33.28Q72.83-30.02 70.02-27.26L70.02-27.26L70.02-27.26Q67.39-24.77 64.51-24.19L64.51-24.19L64.51-24.19Q67.58-23.68 69.76-21.38L69.76-21.38L69.76-21.38Q72.06-18.94 72.06-15.17L72.06-15.17L72.06-15.17Q72.06-7.87 66.62-3.62L66.62-3.62L66.62-3.62Q61.18 0.64 50.50 0.64L50.50 0.64L50.50 0.64Q43.14 0.64 34.88-0.32ZM52.29-20.61L49.09-4.03L49.09-4.03Q49.66-3.97 49.79-3.97L49.79-3.97L50.37-3.97L50.37-3.97Q55.62-3.97 57.86-7.42L57.86-7.42L57.86-7.42Q59.52-10.11 59.52-15.04L59.52-15.04L59.52-15.04Q59.52-17.66 57.82-19.07L57.82-19.07L57.82-19.07Q56.13-20.48 52.29-20.61L52.29-20.61ZM62.02-33.22L62.02-33.22L62.02-33.22Q62.02-38.53 56.90-38.53L56.90-38.53L56.32-38.53L56.32-38.53Q56.06-38.53 55.68-38.46L55.68-38.46L53.12-24.96L53.76-24.96L53.76-24.96Q62.02-25.15 62.02-33.22Z" fill="#ccc"></path></g></g><style>text {
  font-size: 64px;
  font-family: Arial Black;
  dominant-baseline: central;
  text-anchor: middle;
}</style></svg>